# xmcd
#
# Track frame offsets: 
#        150
#        28727
#        64400
#        100807
#        141067
#        172122
#        203752
#        233902
#        268485
#
# Disc length: 4037 seconds
#
# Revision: 1
# Processed by: cddbd v1.5.2PL0 Copyright (c) Steve Scherf et al.
# Submitted via: ExactAudioCopy v0.99pb5
#
DISCID=880fc309
DTITLE=Phil Woods - The Rev And I
DYEAR=1998
DGENRE=Jazz
TTITLE0=The Rev And I
TTITLE1=We Could Make Such Beautiful Music Together
TTITLE2=Hand In Glove
TTITLE3=All Too Soon
TTITLE4=Red Top
TTITLE5=I'm So Scared Of Girls When They're Good Looking
TTITLE6=Loose Change
TTITLE7=Dutch Morning
TTITLE8=Before I Left
EXTD=
EXTT0=
EXTT1=
EXTT2=
EXTT3=
EXTT4=
EXTT5=
EXTT6=
EXTT7=
EXTT8=
PLAYORDER=
